<?xml version="1.0" encoding="utf-8"?>
<!-- Generator: Adobe Illustrator 16.0.4, SVG Export Plug-In . SVG Version: 6.00 Build 0)  -->
<!DOCTYPE svg PUBLIC "-//W3C//DTD SVG 1.1//EN" "http://www.w3.org/Graphics/SVG/1.1/DTD/svg11.dtd">
<svg version="1.1" id="Layer_1" xmlns="http://www.w3.org/2000/svg" xmlns:xlink="http://www.w3.org/1999/xlink" x="0px" y="0px"
	 width="39.167px" height="39.167px" viewBox="0 -9.167 39.167 39.167" enable-background="new 0 -9.167 39.167 39.167"
	 xml:space="preserve">
<path d="M940.626,1121.9c-0.245,0-0.46-0.095-0.647-0.282l-1.408-1.408c-0.188-0.188-0.282-0.403-0.282-0.646
	c0-0.244,0.094-0.46,0.282-0.648l11.068-11.067l-11.068-11.067c-0.188-0.188-0.282-0.404-0.282-0.647
	c0-0.244,0.094-0.46,0.282-0.647l1.408-1.408c0.188-0.188,0.403-0.282,0.647-0.282s0.46,0.096,0.647,0.282l13.125,13.124
	c0.188,0.188,0.281,0.403,0.281,0.648c0,0.244-0.094,0.46-0.281,0.646l-13.125,13.124
	C941.086,1121.807,940.87,1121.9,940.626,1121.9z"/>
<g>
	<path d="M14.444,18.047c-0.279,0-0.558-0.078-0.801-0.231c-0.435-0.275-0.699-0.754-0.699-1.269V4.286
		c0-0.515,0.264-0.993,0.699-1.268c0.435-0.275,0.981-0.307,1.445-0.086L27.977,9.06c0.523,0.249,0.856,0.776,0.856,1.354
		c0,0.579-0.333,1.106-0.855,1.355l-12.89,6.132C14.884,17.999,14.664,18.047,14.444,18.047z"/>
</g>
<path d="M19.584,29.666c-10.614,0-19.25-8.636-19.25-19.251c0-10.614,8.635-19.249,19.25-19.249
	c10.613,0,19.248,8.635,19.248,19.249C38.832,21.03,30.197,29.666,19.584,29.666z M19.584-4.833c-8.409,0-15.25,6.84-15.25,15.249
	c0,8.409,6.841,15.251,15.25,15.251c8.408,0,15.248-6.842,15.248-15.251C34.832,2.007,27.992-4.833,19.584-4.833z"/>
</svg>
