<?xml version="1.0" encoding="utf-8"?>
<!-- Generator: Adobe Illustrator 19.0.0, SVG Export Plug-In . SVG Version: 6.00 Build 0)  -->
<svg version="1.1" id="Layer_1" xmlns="http://www.w3.org/2000/svg" xmlns:xlink="http://www.w3.org/1999/xlink" x="0px" y="0px"
	 viewBox="0 0 650 650" style="enable-background:new 0 0 650 650;" xml:space="preserve">
<style type="text/css">
	.st0{opacity:0.3;fill:#ADE4F4;}
</style>
<path id="XMLID_123_" class="st0" d="M609.2,512.2c1.7-6.4,2.6-13.2,2.6-20.2c0-41.8-32.1-75.7-71.7-75.7c-22,0-41.8,10.5-54.9,27
	c-7.9-6.4-17.8-10.2-28.5-10.2c-22.6,0-41.4,16.8-45.6,39.1c-5.7-2.6-11.9-4-18.5-4c-25.7,0-46.5,21.7-46.5,48.6
	c0,2.3,0.2,4.6,0.5,6.9c-25.5,6.3-44.4,29.2-44.4,56.4c0,32.1,26.3,58.2,58.7,58.2c12.7,0,24.5-4,34.1-10.8
	c15.7,9.6,35.5,15.4,57.2,15.4c19.2,0,36.9-4.5,51.6-12.2c13.9,7.4,30.6,11.7,48.4,11.7c49.4,0,89.4-32.9,89.4-73.6
	C641.6,546.1,629,525.7,609.2,512.2z"/>
<path id="XMLID_122_" class="st0" d="M183.1,169.1c0.9-3.5,1.4-7.2,1.4-11.1c0-22.9-17.6-41.4-39.3-41.4c-12.1,0-22.9,5.8-30.1,14.8
	c-4.3-3.5-9.7-5.6-15.6-5.6c-12.4,0-22.7,9.2-25,21.4c-3.1-1.4-6.5-2.2-10.1-2.2C50.4,145,39,156.9,39,171.6c0,1.3,0.1,2.5,0.3,3.8
	c-14,3.5-24.3,16-24.3,30.9c0,17.6,14.4,31.9,32.2,31.9c7,0,13.4-2.2,18.7-5.9c8.6,5.3,19.5,8.4,31.3,8.4c10.5,0,20.2-2.5,28.3-6.7
	c7.6,4.1,16.7,6.4,26.5,6.4c27,0,49-18,49-40.3C200.8,187.6,194,176.5,183.1,169.1z"/>
<g id="XMLID_27_">
	<path id="XMLID_30_" d="M234,343.9l2.2-2.2c2.1-2.1,2.1-5.4,0-7.5c-2.1-2.1-5.5-2.1-7.6,0l-2.2,2.2c-2.1,2.1-2.1,5.4,0,7.5h0
		C228.6,346,232,346,234,343.9z"/>
	<path id="XMLID_33_" d="M535.6,440.2l9.6-9.7l2.2-2.2c11.8-11.8,11.7-30.9-0.1-42.7c-7.6-7.6-18.3-10.3-28.1-8l-6.2-23.8l16.2-16.3
		l2.2-2.2c11.8-11.8,11.7-30.9-0.1-42.7c-9.7-9.6-24.2-11.3-35.7-5.2l-7.7-29.3l67.8-68.1l14.2-14.3c25.4-25.5,25.3-66.7-0.2-92.1
		c-25.5-25.4-66.7-25.3-92.1,0.2l-14.2,14.3l-66.4,66.7l-33.1-8.5c6.1-11.4,4.3-26.1-5.4-35.7c-11.8-11.8-31-11.8-42.7,0l-2.2,2.2
		l-16.2,16.3l-23.7-6c2.2-9.8-0.5-20.5-8.2-28.1c-11.8-11.8-31-11.8-42.7,0l-2.2,2.2l-9.6,9.7L74.5,81.9c-5.5-1.4-12.7,0.6-17.7,5.7
		l-8.6,8.6c-7.9,7.9-8.2,19.6-1.1,24l243.2,152.2l-40.1,40.3c-0.2,0.1-0.4,0.3-0.6,0.5l-2.2,2.2c-0.2,0.2-0.3,0.4-0.5,0.6l-0.5,0.5
		l0.1,0.1c-1.1,2-0.9,4.6,0.8,6.4c1.9,1.9,4.9,2.1,7,0.4l0.1,0.1l211.7-212.6L479.9,97c24.6-24.7,61.9-27.3,83.1-6.2
		c21.1,21.1,18.7,58.4-5.9,83.1l-13.8,13.8L306.3,425.6L248.1,484c-3.4,3.4-7.6,5.9-11.6,7l-79.1,22.1c-10.6,3-17.6-4.1-14.7-14.6
		l21.6-79.3c1.1-4.1,3.2-8.6,6.6-12l44.2-44.4l-0.1-0.1l1.2-1.2c2.1-2.1,2.1-5.4,0-7.5c-2.1-2.1-5.5-2.1-7.6,0l-2.2,2.2
		c-0.3,0.3-0.5,0.5-0.7,0.8l-42.1,42.3l-80.3,0.9c-3.4,0-6.9,1.3-9.7,3.6l-1.7,1.4c-8.5,6.8-8.4,19.2,0.2,23.3l70.8,34.5l-8.2,40.6
		c-2.4,11.6,6.1,20,17.6,17.6l40.3-8.4l34.7,70.4c4.2,8.6,16.6,8.6,23.3,0.1l1.4-1.7c2.3-2.9,3.6-6.3,3.6-9.7l0.6-81.1l54.8-55
		l70.7-71l151.3,239.7c4.4,7,16,6.6,23.9-1.3l8.6-8.6c5.1-5.1,7-12.3,5.6-17.8L535.6,440.2z M318.1,130.3l1.9-1.9
		c9.9-10,25-11.1,33.5-2.6c7.1,7.1,7.6,18.8,1.7,28.2l-48.4-12.5L318.1,130.3z M225.1,114.7l1.9-1.9c9.9-10,25-11.1,33.5-2.6
		c5.3,5.3,6.9,13.2,4.9,20.8l-45-11.6L225.1,114.7z M296.8,265.8l-36.4-21.7L57.2,116.9c-4.5-2.8-4.4-10.4,0.7-15.4l5.5-5.5
		c3.3-3.3,7.9-4.5,11.4-3.6l128.1,33l-0.1,0.1l9.3,2.4l0.1-0.1L313.8,154l74,20.4L296.8,265.8z M137.5,453.4l-59.4-28.7
		c-5.4-2.6-5.5-10.4-0.1-14.8l1.1-0.9c1.8-1.5,4-2.3,6.2-2.3l72.4-1.1c-2.8,3.3-4.6,7.5-5.4,11.4l-7.3,36.3
		C142.5,454.4,139.8,454.5,137.5,453.4z M247,576.3l-0.9,1.1c-4.3,5.4-12.1,5.4-14.8,0l-28.9-59.3c-1.1-2.2-1-4.9,0-7.3l36.4-7.6
		c4.1-0.8,8-3.1,11.3-6.2l-0.9,73.2C249.3,572.3,248.5,574.5,247,576.3z M542.2,390.9c8.5,8.5,7.5,23.5-2.5,33.5l-1.9,1.9l-4.7,4.7
		L521.5,386C529,384,536.9,385.6,542.2,390.9z M526.2,297.9c8.5,8.5,7.5,23.5-2.5,33.5l-1.9,1.9l-11.3,11.3L498,296.3
		C507.5,290.4,519.1,290.8,526.2,297.9z M557.2,587.9l-5.5,5.5c-5,5.1-12.5,5.3-15.4,0.8L408.5,391.6l-20.1-33.4l90.3-90.7
		l19.6,70.1l26.6,101.5l-0.1,0.1l2.4,9.3l0.1-0.1l33.5,127.9C561.7,580,560.5,584.7,557.2,587.9z"/>
</g>
<path id="XMLID_28_" d="M548.3,116.5c6.1,23.4-14.9,41.5-24.2,48.2c-2.2,1.6-2.5,4.7-0.6,6.7l1.1,1.2c1.8,1.9,5,2.2,7,0.5
	c35-28.4,29.4-51.7,26.2-59.2c-0.7-1.6-2.2-2.7-4-2.9l0,0C550.3,110.4,547.5,113.3,548.3,116.5z"/>
</svg>
