<?xml version="1.0" encoding="utf-8"?>
<!-- Generator: Adobe Illustrator 16.0.4, SVG Export Plug-In . SVG Version: 6.00 Build 0)  -->
<!DOCTYPE svg PUBLIC "-//W3C//DTD SVG 1.1//EN" "http://www.w3.org/Graphics/SVG/1.1/DTD/svg11.dtd">
<svg version="1.1" id="Layer_1" xmlns="http://www.w3.org/2000/svg" xmlns:xlink="http://www.w3.org/1999/xlink" x="0px" y="0px"
	 width="30px" height="30px" viewBox="931.016 1092.846 30 30" enable-background="new 931.016 1092.846 30 30"
	 xml:space="preserve">
<path d="M940.626,1121.9c-0.245,0-0.46-0.094-0.648-0.282l-1.408-1.408c-0.188-0.188-0.282-0.403-0.282-0.647
	s0.094-0.46,0.282-0.648l11.069-11.067l-11.069-11.068c-0.188-0.188-0.282-0.404-0.282-0.647c0-0.245,0.094-0.46,0.282-0.648
	l1.408-1.408c0.188-0.188,0.404-0.282,0.648-0.282c0.244,0,0.46,0.095,0.647,0.282l13.125,13.124
	c0.188,0.188,0.282,0.403,0.282,0.648c0,0.244-0.094,0.46-0.282,0.647l-13.125,13.124
	C941.086,1121.807,940.87,1121.9,940.626,1121.9z"/>
</svg>
