<?xml version="1.0" encoding="utf-8"?>
<!-- Generator: Adobe Illustrator 19.0.0, SVG Export Plug-In . SVG Version: 6.00 Build 0)  -->
<svg version="1.1" id="Layer_1" xmlns="http://www.w3.org/2000/svg" xmlns:xlink="http://www.w3.org/1999/xlink" x="0px" y="0px"
	 viewBox="0 0 767 170" style="enable-background:new 0 0 767 170;" xml:space="preserve">
<style type="text/css">
	.st0{fill:#44C4E7;}
	.st1{fill:#28C937;}
	.st2{fill:#3A4150;}
</style>
<path id="XMLID_4_" class="st0" d="M75.5,95.4c0-3.5,0.3-6.9,1-10.3l-0.3,0c-1.3,0.1-2.6,0.1-3.9,0.1c-10,0-19.6-2.8-27.1-7.8
	c-3.3-2.1-6.9-6.3-7-6.3l-0.4-0.5L7,99.1l28.3-15.7c9.7,8,23.1,12.6,37,12.6c0.9,0,1.9,0,3.1,0h0C75.5,96,75.5,95.6,75.5,95.4z"/>
<path id="XMLID_3_" class="st0" d="M108,24c-9.7-7.6-22.6-11.7-36.2-11.7c-17.7,0-26.4,4.2-36.1,11.9c-9.2,7.3-14.7,17-15.5,27.3
	l-0.8,10.7l2.1-10.5c0-0.1,1.7-8.4,8.7-16.6c4.1-4.8,9.3-8.7,15.2-11.5c7.5-3.5,16.4-5.2,26.4-5.3c15.6,0,25.4,6.2,31,11.4
	c7,6.6,11.1,15.4,11.1,24.2c0,8-4.1,15.5-11.8,21.3c-2.8,4.8-4.5,10-5.2,15.3l0.3-0.2c4-1.8,7.6-4,10.8-6.5
	c10.1-7.9,15.6-18.6,15.6-30C123.7,42.5,118.1,31.9,108,24z"/>
<path id="XMLID_2_" class="st1" d="M224.9,91.5c-1.1-14.5-8.9-28.1-21.9-38.3c-13.7-10.7-25.9-16.6-50.8-16.6
	c-9.3,0-18.4,1.4-26.9,4.1c1,2.7,1.7,5.5,2,8.3l0.1,0c7.6-2.9,16-4.4,24.8-4.4c14.1,0,26.7,2.5,37.3,7.4c8.5,3.9,15.8,9.3,21.6,16.2
	c10,11.6,12.5,23.4,12.5,23.5l2.1,10.4L224.9,91.5z"/>
<path id="XMLID_1_" class="st1" d="M201.2,118.5l-0.4,0.5c-0.1,0.1-5.2,6-10,9c-10.7,7.2-24.4,11.1-38.6,11.1
	c-15.6,0-30.5-4.6-41.8-12.9c-11.4-8.4-17.6-19.4-17.6-31c0-12.7,5.8-25.3,16.1-34.8c0.8-2.1,1.2-4.3,1.2-6.6c0-2-0.3-4-0.8-6
	l-0.1,0.1c-2.7,1.6-5.3,3.4-7.7,5.3c-14.2,11.1-22,26-22,42s7.8,30.9,22,42c13.7,10.7,31.7,16.6,50.8,16.6c19.8,0,38.9-6.5,52.5-18
	l38.3,21.3L201.2,118.5z"/>
<g id="XMLID_20_">
	<path id="XMLID_43_" class="st2" d="M300.6,76.5l-4.3,1.8c-2.9-3.5-7-5.3-12.3-5.3c-4,0-7.2,1.2-9.7,3.5c-2.5,2.3-3.8,5.3-3.8,8.9
		c0,3.7,1.2,6.7,3.7,9c2.5,2.3,5.8,3.4,10.1,3.4c5.1,0,9.1-1.8,12-5.4l4.1,2.6c-2.1,2.7-4.4,4.7-7,6c-2.6,1.2-5.7,1.8-9.4,1.8
		c-5.1,0-9.3-1.4-12.7-4.3c-3.9-3.3-5.8-7.7-5.8-13c0-5.3,2-9.6,5.9-12.9c3.4-2.9,7.6-4.4,12.6-4.4C291.3,68,296.8,70.8,300.6,76.5z
		"/>
	<path id="XMLID_40_" class="st2" d="M356.9,101.8h-5.2l-3.3-7.3h-19.4l-3.3,7.3h-5.2L335.6,69h6L356.9,101.8z M346,89.5l-7.3-15.9
		l-7.4,15.9H346z"/>
	<path id="XMLID_37_" class="st2" d="M401.1,69c2.9,0,5.3,0.9,7,2.8c1.7,1.9,2.6,4.3,2.6,7.4c0,3.3-0.9,5.7-2.7,7.5
		c-1.8,1.7-4.4,2.6-7.8,2.6H383v12.5h-4.8V69H401.1z M400.3,84.4c3.7,0,5.5-1.7,5.5-5.1c0-3.6-2-5.4-5.9-5.4H383v10.5H400.3z"/>
	<path id="XMLID_35_" class="st2" d="M460.4,73.9h-13.8v27.9h-4.8V73.9h-13.8V69h32.3V73.9z"/>
	<path id="XMLID_33_" class="st2" d="M486.8,101.8H482V69h4.8V101.8z"/>
	<path id="XMLID_31_" class="st2" d="M544.3,69l-15.5,32.8h-5.5L507.7,69h5.3L526,96.3L539,69H544.3z"/>
	<path id="XMLID_28_" class="st2" d="M597.5,101.8h-5.2l-3.3-7.3h-19.4l-3.3,7.3H561L576.3,69h6L597.5,101.8z M586.7,89.5l-7.3-15.9
		l-7.4,15.9H586.7z"/>
	<path id="XMLID_26_" class="st2" d="M647.2,73.9h-13.8v27.9h-4.8V73.9h-13.8V69h32.3V73.9z"/>
	<path id="XMLID_24_" class="st2" d="M699,101.8h-30.2V69h29.1v4.9h-24.3v8.4h16.9v4.9h-16.9v9.7H699V101.8z"/>
	<path id="XMLID_21_" class="st2" d="M740.3,69c5,0,9,1.5,11.9,4.5c2.9,3,4.4,7.1,4.4,12.2c0,4.7-1.6,8.6-4.7,11.7
		c-2.9,2.9-6.5,4.3-10.8,4.3h-19.2V69H740.3z M741.7,96.9c2.9,0,5.2-1.1,7.1-3.2c1.8-2.1,2.8-4.8,2.8-8.1c0-3.5-1-6.3-3-8.5
		s-4.6-3.2-7.8-3.2h-13.9v23H741.7z"/>
</g>
</svg>
