<?xml version="1.0" encoding="utf-8"?>
<!-- Generator: Adobe Illustrator 18.0.0, SVG Export Plug-In . SVG Version: 6.00 Build 0)  -->
<!DOCTYPE svg PUBLIC "-//W3C//DTD SVG 1.1//EN" "http://www.w3.org/Graphics/SVG/1.1/DTD/svg11.dtd">
<svg version="1.1" id="Layer_1" xmlns="http://www.w3.org/2000/svg" xmlns:xlink="http://www.w3.org/1999/xlink" x="0px" y="0px"
	 viewBox="0 0 199.5 378.4" enable-background="new 0 0 199.5 378.4" xml:space="preserve">
<path display="none" fill="none" stroke="#A4A4A4" stroke-miterlimit="10" d="M1591.3,37.4c1.7,0,3-1.3,3-3s-1.3-3-3-3s-3,1.3-3,3
	S1589.7,37.4,1591.3,37.4L1591.3,37.4z M1591.3,37.4"/>
<g>
	<defs>
		<rect id="SVGID_1_" x="1528.3" y="10.4" width="181" height="368"/>
	</defs>
	<defs>
		<path id="SVGID_2_" d="M1606.3,32.4c-1.1,0-2,0.9-2,2l0,0c0,1.1,0.9,2,2,2h26c1.1,0,2-0.9,2-2l0,0c0-1.1-0.9-2-2-2H1606.3
			L1606.3,32.4z M1606.3,32.4"/>
	</defs>
	<defs>
		<path id="SVGID_3_" d="M1051.3-132.6h800v600h-800V-132.6z M1051.3-132.6"/>
	</defs>
	<defs>
		<rect id="SVGID_4_" x="1528.3" y="-413.6" width="612" height="792"/>
	</defs>
	<clipPath id="SVGID_5_">
		<use xlink:href="#SVGID_1_"  overflow="visible"/>
	</clipPath>
	<clipPath id="SVGID_6_" clip-path="url(#SVGID_5_)">
		<use xlink:href="#SVGID_2_"  overflow="visible"/>
	</clipPath>
	<clipPath id="SVGID_7_" clip-path="url(#SVGID_6_)">
		<use xlink:href="#SVGID_3_"  overflow="visible"/>
	</clipPath>
	<clipPath id="SVGID_8_" clip-path="url(#SVGID_7_)">
		<use xlink:href="#SVGID_4_"  overflow="visible"/>
	</clipPath>
	<path clip-path="url(#SVGID_8_)" fill="none" stroke="#A4A4A4" stroke-width="2" stroke-miterlimit="10" d="M1606.3,32.4
		c-1.1,0-2,0.9-2,2l0,0c0,1.1,0.9,2,2,2h26c1.1,0,2-0.9,2-2l0,0c0-1.1-0.9-2-2-2H1606.3L1606.3,32.4z M1606.3,32.4"/>
</g>
<g display="none">
	<defs>
		<rect id="SVGID_9_" x="1528.3" y="10.4" width="181" height="368"/>
	</defs>
	<clipPath id="SVGID_10_" display="inline">
		<use xlink:href="#SVGID_9_"  overflow="visible"/>
	</clipPath>
	<path display="inline" clip-path="url(#SVGID_10_)" fill="none" stroke="#A4A4A4" stroke-miterlimit="10" d="M1708.3,116.2v235.2
		c0,14.4-11.6,26-26,26h-126c-14.4,0-26-11.6-26-26v-314c0-14.4,11.6-26,26-26h126c14.4,0,26,11.6,26,26v52.2
		c-0.2,0.2-0.4,0.5-0.4,0.8v25C1707.9,115.7,1708.1,116,1708.3,116.2L1708.3,116.2z M1708.3,116.2 M1708.3,116.2v235.2
		c0,14.4-11.6,26-26,26h-126c-14.4,0-26-11.6-26-26v-314c0-14.4,11.6-26,26-26h126c14.4,0,26,11.6,26,26v52.2
		c-0.2,0.2-0.4,0.5-0.4,0.8v25C1707.9,115.7,1708.1,116,1708.3,116.2L1708.3,116.2z M1708.3,116.2"/>
</g>
<g>
	<defs>
		<rect id="SVGID_11_" x="1528.3" y="10.4" width="181" height="368"/>
	</defs>
	<defs>
		<path id="SVGID_12_" d="M1557.3,15.4c-12.2,0-22,9.9-22,22v313c0,12.1,9.8,22,22,22h125c12.2,0,22-9.9,22-22v-313
			c0-12.1-9.8-22-22-22H1557.3L1557.3,15.4z M1557.3,15.4"/>
	</defs>
	<defs>
		<path id="SVGID_13_" d="M1051.3-132.6h800v600h-800V-132.6z M1051.3-132.6"/>
	</defs>
	<defs>
		<rect id="SVGID_14_" x="1528.3" y="-413.6" width="612" height="792"/>
	</defs>
	<clipPath id="SVGID_15_">
		<use xlink:href="#SVGID_11_"  overflow="visible"/>
	</clipPath>
	<clipPath id="SVGID_16_" clip-path="url(#SVGID_15_)">
		<use xlink:href="#SVGID_12_"  overflow="visible"/>
	</clipPath>
	<clipPath id="SVGID_17_" clip-path="url(#SVGID_16_)">
		<use xlink:href="#SVGID_13_"  overflow="visible"/>
	</clipPath>
	<clipPath id="SVGID_18_" clip-path="url(#SVGID_17_)">
		<use xlink:href="#SVGID_14_"  overflow="visible"/>
	</clipPath>
	<path clip-path="url(#SVGID_18_)" fill="none" stroke="#A4A4A4" stroke-width="2" stroke-miterlimit="10" d="M1557.3,15.4
		c-12.2,0-22,9.9-22,22v313c0,12.1,9.8,22,22,22h125c12.2,0,22-9.9,22-22v-313c0-12.1-9.8-22-22-22H1557.3L1557.3,15.4z
		 M1557.3,15.4"/>
</g>
<g>
	<defs>
		<rect id="SVGID_19_" x="1528.3" y="10.4" width="181" height="368"/>
	</defs>
	<defs>
		<path id="SVGID_20_" d="M1557.3,15.4c-12.2,0-22,9.9-22,22v313c0,12.1,9.8,22,22,22h125c12.2,0,22-9.9,22-22v-313
			c0-12.1-9.8-22-22-22H1557.3L1557.3,15.4z M1557.3,15.4"/>
	</defs>
	<defs>
		<path id="SVGID_21_" d="M1051.3-132.6h800v600h-800V-132.6z M1051.3-132.6"/>
	</defs>
	<defs>
		<rect id="SVGID_22_" x="1528.3" y="-413.6" width="612" height="792"/>
	</defs>
	<clipPath id="SVGID_23_">
		<use xlink:href="#SVGID_19_"  overflow="visible"/>
	</clipPath>
	<clipPath id="SVGID_24_" clip-path="url(#SVGID_23_)">
		<use xlink:href="#SVGID_20_"  overflow="visible"/>
	</clipPath>
	<clipPath id="SVGID_25_" clip-path="url(#SVGID_24_)">
		<use xlink:href="#SVGID_21_"  overflow="visible"/>
	</clipPath>
	<clipPath id="SVGID_26_" clip-path="url(#SVGID_25_)">
		<use xlink:href="#SVGID_22_"  overflow="visible"/>
	</clipPath>
	<path clip-path="url(#SVGID_26_)" fill="none" stroke="#A4A4A4" stroke-width="2" stroke-miterlimit="10" d="M1557.3,15.4
		c-12.2,0-22,9.9-22,22v313c0,12.1,9.8,22,22,22h125c12.2,0,22-9.9,22-22v-313c0-12.1-9.8-22-22-22H1557.3L1557.3,15.4z
		 M1557.3,15.4"/>
</g>
<g>
	<defs>
		<rect id="SVGID_27_" x="1528.3" y="10.4" width="181" height="368"/>
	</defs>
	<clipPath id="SVGID_28_">
		<use xlink:href="#SVGID_27_"  overflow="visible"/>
	</clipPath>
	
		<path display="none" clip-path="url(#SVGID_28_)" fill="none" stroke="#A4A4A4" stroke-linecap="square" stroke-miterlimit="10" d="
		M1529.3,89.9v27.5 M1529.8,57.8V72 M1529.3,122.4v27.9"/>
</g>
<path fill="none" stroke="#A4A4A4" stroke-miterlimit="10" d="M1619.3,24.4c1.1,0,2-0.9,2-2c0-1.1-0.9-2-2-2c-1.1,0-2,0.9-2,2
	C1617.3,23.5,1618.2,24.4,1619.3,24.4L1619.3,24.4z M1619.3,24.4"/>
<g>
	<defs>
		<rect id="SVGID_29_" x="1528.3" y="10.4" width="181" height="368"/>
	</defs>
	<defs>
		<path id="SVGID_30_" d="M1543.3,54.4c-1.1,0-2,0.9-2,2v274c0,1.1,0.9,2,2,2h152c1.1,0,2-0.9,2-2v-274c0-1.1-0.9-2-2-2H1543.3
			L1543.3,54.4z M1543.3,54.4"/>
	</defs>
	<defs>
		<path id="SVGID_31_" d="M1051.3-132.6h800v600h-800V-132.6z M1051.3-132.6"/>
	</defs>
	<defs>
		<rect id="SVGID_32_" x="1528.3" y="-413.6" width="612" height="792"/>
	</defs>
	<clipPath id="SVGID_33_">
		<use xlink:href="#SVGID_29_"  overflow="visible"/>
	</clipPath>
	<clipPath id="SVGID_34_" clip-path="url(#SVGID_33_)">
		<use xlink:href="#SVGID_30_"  overflow="visible"/>
	</clipPath>
	<clipPath id="SVGID_35_" clip-path="url(#SVGID_34_)">
		<use xlink:href="#SVGID_31_"  overflow="visible"/>
	</clipPath>
	<clipPath id="SVGID_36_" clip-path="url(#SVGID_35_)">
		<use xlink:href="#SVGID_32_"  overflow="visible"/>
	</clipPath>
	<path clip-path="url(#SVGID_36_)" fill="none" stroke="#A4A4A4" stroke-width="2" stroke-miterlimit="10" d="M1543.3,54.4
		c-1.1,0-2,0.9-2,2v274c0,1.1,0.9,2,2,2h152c1.1,0,2-0.9,2-2v-274c0-1.1-0.9-2-2-2H1543.3L1543.3,54.4z M1543.3,54.4"/>
</g>
<path fill="none" stroke="#A4A4A4" stroke-miterlimit="10" d="M1619.3,365.4c6.6,0,12-5.4,12-12c0-6.6-5.4-12-12-12s-12,5.4-12,12
	C1607.3,360,1612.7,365.4,1619.3,365.4L1619.3,365.4z M1619.3,365.4 M1619.3,367.4c7.7,0,14-6.3,14-14c0-7.7-6.3-14-14-14
	c-7.7,0-14,6.3-14,14C1605.3,361.1,1611.6,367.4,1619.3,367.4L1619.3,367.4z M1619.3,367.4"/>
<path fill-rule="evenodd" clip-rule="evenodd" fill="none" stroke="#35B0D1" stroke-width="3" stroke-miterlimit="10" d="M37.3,13.2
	c-12.2,0-22,9.9-22,22v313c0,12.1,9.8,22,22,22h125c12.2,0,22-9.9,22-22v-313c0-12.1-9.8-22-22-22H37.3L37.3,13.2z M37.3,13.2"/>
<g>
	<defs>
		<rect id="SVGID_37_" x="10.2" y="10.4" width="181" height="368"/>
	</defs>
	<clipPath id="SVGID_38_">
		<use xlink:href="#SVGID_37_"  overflow="visible"/>
	</clipPath>
	
		<path display="none" clip-path="url(#SVGID_38_)" fill="none" stroke="#A4A4A4" stroke-linecap="square" stroke-miterlimit="10" d="
		M11.2,89.9v27.5 M11.7,57.8V72 M11.2,122.4v27.9"/>
</g>
<path display="none" fill="none" stroke="#A4A4A4" stroke-miterlimit="10" d="M101.2,24.4c1.1,0,2-0.9,2-2c0-1.1-0.9-2-2-2
	c-1.1,0-2,0.9-2,2C99.2,23.5,100.1,24.4,101.2,24.4L101.2,24.4z M101.2,24.4"/>
<rect x="26.6" y="48.6" fill="none" stroke="#35B0D1" stroke-width="3" stroke-miterlimit="10" width="146.4" height="274.8"/>
<circle fill="none" stroke="#35B0D1" stroke-width="3" stroke-miterlimit="10" cx="99.7" cy="346.4" r="14.7"/>
</svg>
