<?xml version="1.0" encoding="utf-8"?>
<!-- Generator: Adobe Illustrator 19.0.0, SVG Export Plug-In . SVG Version: 6.00 Build 0)  -->
<svg version="1.1" id="Layer_1" xmlns="http://www.w3.org/2000/svg" xmlns:xlink="http://www.w3.org/1999/xlink" x="0px" y="0px"
	 viewBox="0 0 2067.1 468" style="enable-background:new 0 0 2067.1 468;" xml:space="preserve">
<style type="text/css">
	.st0{fill:#28C937;}
	.st1{fill:#44C4E7;}
	.st2{fill:#5D5D5D;}
</style>
<path id="XMLID_272_" class="st0" d="M359,112.5c24.1-7.7,50.1-11.7,76.8-11.7c70.7,0,105.8,16.7,144.6,47.1
	c37.1,29,58.8,67.2,62,108.5c0,0-27.4-136.4-206.6-136.4c-26.8,0-50.8,4.7-71.9,12.7C363,125.8,361.3,119,359,112.5z"/>
<path id="XMLID_273_" class="st0" d="M576.6,336.2c0,0-14.9,17.3-29,26.1c-30.7,20.7-70.2,32.2-111.7,32.2
	c-93,0-172.4-57.3-172.4-127.7c0-36.8,17.4-75.3,49.6-103.6c1.3-4.7,2-9.5,2-14.4c0-5.3-0.6-10.7-1.8-16c-7.7,4.5-15.1,9.5-22,15
	c-40.2,31.5-62.4,73.7-62.4,119c0,45.3,22.2,87.6,62.4,119c38.8,30.4,90.2,47.1,144.6,47.1c57,0,111.4-18.8,150.4-51.9l97.5,54.1
	L576.6,336.2z"/>
<path id="XMLID_274_" class="st1" d="M59.2,141.1c2.2-29.3,17.6-56.3,43.9-76.9c27.5-21.5,52.4-33.4,102.5-33.4
	c38.6,0,75,11.9,102.5,33.4c28.5,22.3,44.2,52.3,44.2,84.4s-15.7,62.1-44.2,84.4c-9.3,7.3-19.7,13.4-30.7,18.4
	c1.8-12.8,5.9-25.4,12-37.4c23.5-16.5,38.4-39.7,38.4-65.4c0-49.9-45.2-104.2-122.2-104.2C78.5,44.4,59.2,141.1,59.2,141.1z"/>
<path id="XMLID_275_" class="st1" d="M215.7,266.9c0-9.2,0.8-18.2,2.5-27.1c-3.7,0.3-7.4,0.4-11.2,0.4c-29.2,0-57.1-8.2-78.7-22.7
	c-9.9-6.2-20.5-18.4-20.5-18.4l-75.6,69.8l68.7-38.1c27.5,23.3,65.8,36.5,106,36.5c2.9,0,5.9-0.1,8.8-0.2
	C215.7,267,215.7,266.9,215.7,266.9z"/>
<path id="XMLID_299_" class="st2" d="M866.2,221.4l-10.5,4.3c-7.1-8.6-17-12.8-29.7-12.8c-9.7,0-17.5,2.8-23.6,8.4
	c-6.1,5.6-9.1,12.8-9.1,21.5c0,9,3,16.3,9,21.8c6,5.5,14.1,8.3,24.4,8.3c12.4,0,22.1-4.4,29.1-13l9.9,6.3c-5,6.7-10.7,11.5-17,14.4
	c-6.3,3-13.9,4.4-22.7,4.4c-12.4,0-22.6-3.5-30.8-10.5c-9.3-8-14-18.6-14-31.6c0-12.8,4.7-23.2,14.2-31.4
	c8.2-7.1,18.4-10.6,30.6-10.6C843.4,200.8,856.8,207.6,866.2,221.4z"/>
<path id="XMLID_277_" class="st2" d="M965.5,203.3h-14.6l-37,80h12.7l8.1-18h47.1l8.1,18h12.7L965.5,203.3z M940.3,252.3l18-38.5
	l17.8,38.5H940.3z"/>
<path id="XMLID_280_" class="st2" d="M1126.5,210c-4.2-4.5-9.8-6.7-17-6.7H1055v80h10v-31h42.3c8.3,0,14.6-2,19-6.2
	c4.3-4.2,6.5-10.2,6.5-18.1C1132.8,220.5,1130.7,214.5,1126.5,210z M1107.5,241.3H1065v-26h41.8c9.5,0,14.2,4.7,14.2,13.4
	C1120.9,236.9,1116.5,241.3,1107.5,241.3z"/>
<path id="XMLID_298_" class="st2" d="M1253,215.3h-33v68h-12v-68h-33v-12h78V215.3z"/>
<path id="XMLID_297_" class="st2" d="M1318,283.3h-14v-80h14V283.3z"/>
<path id="XMLID_296_" class="st2" d="M1456.5,203.3l-37.6,80h-13.3l-37.6-80h12.9l31.4,66.2l31.4-66.2H1456.5z"/>
<path id="XMLID_286_" class="st2" d="M1548.5,203.3H1534l-37,80h12.7l8.1-18h47.1l8.1,18h12.7L1548.5,203.3z M1523.4,252.3l18-38.5
	l17.8,38.5H1523.4z"/>
<path id="XMLID_295_" class="st2" d="M1707,215.3h-34v68h-12v-68h-33v-12h79V215.3z"/>
<path id="XMLID_294_" class="st2" d="M1831,283.3h-74v-80h71v12h-59v19h42v14h-42v22h62V283.3z"/>
<path id="XMLID_291_" class="st2" d="M1960.4,214.3c-7.1-7.3-16.7-11-28.9-11H1888v80h45.7c10.4,0,19-3.8,26.1-10.8
	c7.5-7.5,11.3-17.1,11.3-28.4C1971,231.7,1967.5,221.7,1960.4,214.3z M1951.8,262.9c-4.5,5.1-10.2,7.4-17.1,7.4H1899v-55h33.4
	c7.8,0,14.1,2.5,18.9,7.7c4.8,5.2,7.2,11.9,7.2,20.4C1958.5,251.4,1956.2,257.8,1951.8,262.9z"/>
</svg>
